<svg xmlns="http://www.w3.org/2000/svg" width="21.046" height="25.811" viewBox="0 0 21.046 25.811"><defs><style>.a,.b{fill:#20cad1;stroke:#20cad1;}.a{stroke-width:0.5px;}.c{fill:#fff;}</style></defs><g transform="translate(0.25 0.25)"><path class="a" d="M19.751,1.483H19.8A.742.742,0,0,0,19.8,0H2.727A2.73,2.73,0,0,0,0,2.727V22.584a2.73,2.73,0,0,0,2.727,2.727H17.818a2.73,2.73,0,0,0,2.727-2.727V6.7a2.719,2.719,0,0,0-.794-1.922V1.483Zm-17.024,0H18.268V4.009a2.742,2.742,0,0,0-.45-.038H2.727a1.244,1.244,0,0,1,0-2.488Zm16.335,21.1a1.245,1.245,0,0,1-1.244,1.244H2.727a1.245,1.245,0,0,1-1.244-1.244V5.154a2.71,2.71,0,0,0,1.244.3H17.818a1.238,1.238,0,0,1,.718.229c.018.015.036.029.055.042a1.242,1.242,0,0,1,.471.973Zm0,0"/><path class="b" d="M1,4.618l17.945.2.9,2.021-.437,16.854L18.333,24.71,1.38,24.486.566,22.407Z"/><path class="c" d="M89.417,169.811c-.069,0-.138,0-.207.006a3.519,3.519,0,0,0-5.145,0q-.1-.006-.207-.006a3.522,3.522,0,0,0-.742,6.964v3.785a.741.741,0,0,0,.742.742h5.56a.742.742,0,0,0,.742-.742v-3.785a3.522,3.522,0,0,0-.742-6.964ZM84.6,179.819v-.9h4.077v.9Zm4.818-4.448a.742.742,0,0,0-.742.742v1.324H84.6v-1.324a.741.741,0,0,0-.742-.742,2.038,2.038,0,0,1,0-4.077,2.066,2.066,0,0,1,.383.036.742.742,0,0,0,.74-.3,2.037,2.037,0,0,1,3.314,0,.741.741,0,0,0,.74.3,2.062,2.062,0,0,1,.383-.036,2.038,2.038,0,1,1,0,4.077Zm0,0" transform="translate(-76.364 -160.359)"/></g></svg>