<svg xmlns="http://www.w3.org/2000/svg" width="13.579" height="17" viewBox="0 0 13.579 17"><defs><style>.a{fill:#20cad1;stroke:#20cad1;}</style></defs><path class="a" d="M66.691,5.756a12.451,12.451,0,0,0-1.982-2.972.468.468,0,0,0-.67-.032l-2.2,2.057V.5a.516.516,0,0,0-.761-.433A14.443,14.443,0,0,0,56,5.641,9.325,9.325,0,0,0,55.042,9.7a6.289,6.289,0,0,0,6.274,6.289,6.812,6.812,0,0,0,1.848-.278C66.471,14.875,69.037,10.8,66.691,5.756ZM59.869,13.6a3.346,3.346,0,0,1,1.448-2.461A3.533,3.533,0,0,1,62.764,13.6a1.447,1.447,0,1,1-2.895,0Zm3.618.988c.716-1.574-.469-3.476-1.9-4.421a.468.468,0,0,0-.5-.011c-1.492.893-2.659,2.855-1.941,4.432A5.358,5.358,0,0,1,55.979,9.7C55.979,6.3,58.2,3.33,60.9,1.327V5.887a.469.469,0,0,0,.788.344L64.32,3.772A9.242,9.242,0,0,1,66.653,9.7,5.358,5.358,0,0,1,63.486,14.588Z" transform="translate(-54.542 0.51)"/></svg>