<svg xmlns="http://www.w3.org/2000/svg" width="21.249" height="25.749" viewBox="0 0 21.249 25.749"><defs><style>.a{fill:#838dab;stroke:#838dab;stroke-width:0.3px;}</style></defs><g transform="translate(-45.105 0.15)"><path class="a" d="M63.932,10.8l.894-4.528A5.256,5.256,0,0,0,59.67,0h-7.88a5.256,5.256,0,0,0-5.157,6.275l.9,4.538A10.456,10.456,0,0,0,48.56,24.955h0a1.813,1.813,0,0,0,1.245.493H61.654a1.809,1.809,0,0,0,1.243-.491A10.477,10.477,0,0,0,63.932,10.8ZM48.881,2.866a3.752,3.752,0,0,1,2.909-1.375h7.88a3.765,3.765,0,0,1,3.694,4.495l-.69,3.49a10.491,10.491,0,0,0-1.48-1.1l.536-2.715a2.1,2.1,0,0,0-2.06-2.507h-7.88a2.1,2.1,0,0,0-2.06,2.507l.538,2.723a10.588,10.588,0,0,0-1.479,1.1l-.692-3.5a3.752,3.752,0,0,1,.785-3.12Zm2.766,4.806-.454-2.3a.609.609,0,0,1,.6-.727h7.88a.609.609,0,0,1,.6.727l-.453,2.294a10.512,10.512,0,0,0-8.168,0Zm12.3,13.276a8.954,8.954,0,0,1-2.073,2.922.323.323,0,0,1-.222.087H49.805a.327.327,0,0,1-.224-.089,9.01,9.01,0,0,1-2.834-6.67,8.983,8.983,0,1,1,17.2,3.75Z" transform="translate(0 0)"/><path class="a" d="M172.6,293.011h-7.628a.746.746,0,1,0,0,1.491H172.6a.746.746,0,1,0,0-1.491Z" transform="translate(-113.055 -278.444)"/><path class="a" d="M199.616,348.89h-4.646a.746.746,0,0,0,0,1.491h4.646a.746.746,0,0,0,0-1.491Z" transform="translate(-141.564 -331.545)"/></g></svg>