<svg xmlns="http://www.w3.org/2000/svg" width="14.315" height="16.789" viewBox="0 0 14.315 16.789"><defs><style>.a{fill:#20cad1;stroke-width:0.8px;}.a,.b{stroke:#20cad1;}.b{fill:none;stroke-linecap:round;stroke-width:2px;}</style></defs><g transform="translate(-173.601 -460.07)"><path class="a" d="M11.957,4.915l.627-.627a.624.624,0,1,0-.882-.882l-.627.627A6.693,6.693,0,0,0,7.381,2.5V1.248h.6A.624.624,0,0,0,7.984,0H5.531a.624.624,0,0,0,0,1.248h.6V2.5a6.757,6.757,0,1,0,5.823,2.412Zm-5.2,9.827a5.51,5.51,0,1,1,5.51-5.51A5.516,5.516,0,0,1,6.757,14.742Z" transform="translate(174.001 460.47)"/><path class="b" d="M240.758-9293.851l2.551-2.786" transform="translate(-60 9764)"/></g></svg>